<?xml version="1.0" standalone="no"?>
<!DOCTYPE svg PUBLIC "-//W3C//DTD SVG 20010904//EN"
 "http://www.w3.org/TR/2001/REC-SVG-20010904/DTD/svg10.dtd">
<svg version="1.0" xmlns="http://www.w3.org/2000/svg"
 width="512.000000pt" height="512.000000pt" viewBox="0 0 512.000000 512.000000"
 preserveAspectRatio="xMidYMid meet">
<metadata>
Created by potrace 1.14, written by Peter Selinger 2001-2017
</metadata>
<g transform="translate(0.000000,512.000000) scale(0.100000,-0.100000)"
fill="#000000" stroke="none">
<path d="M2005 5107 c-125 -42 -223 -131 -264 -240 -9 -24 -8 -24 96 -41 154
-25 292 -79 418 -162 50 -33 75 -67 75 -100 0 -29 -29 -71 -57 -83 -37 -15
-64 -8 -116 28 -71 48 -156 88 -252 117 -74 22 -113 27 -220 29 -145 3 -216
-5 -308 -37 -124 -42 -218 -99 -308 -188 -77 -76 -102 -133 -105 -240 -4 -173
84 -341 214 -409 30 -16 38 -13 226 80 87 43 215 102 285 130 101 41 359 167
406 199 20 13 144 62 196 76 110 31 183 41 282 38 262 -7 503 -134 765 -404
63 -65 183 -213 234 -290 l16 -25 20 45 c11 25 54 116 96 203 111 229 128 315
76 387 -18 25 -28 30 -63 30 -23 0 -58 -8 -77 -18 -28 -13 -37 -25 -43 -57
-21 -99 -28 -115 -57 -130 -44 -23 -78 -19 -110 13 -26 27 -28 33 -22 83 3 30
6 115 6 189 0 144 -11 198 -62 310 -77 168 -288 367 -420 398 -44 10 -141 7
-153 -5 -8 -8 -5 -18 11 -35 57 -59 159 -236 181 -310 11 -39 -6 -81 -40 -101
-61 -36 -106 -12 -146 75 -106 234 -291 400 -492 443 -64 14 -248 15 -288 2z"/>
<path d="M2435 4114 c-70 -13 -220 -63 -212 -70 2 -3 22 -6 43 -9 104 -10 145
-17 222 -35 98 -23 206 -65 278 -108 69 -40 88 -56 166 -135 73 -72 137 -189
156 -278 35 -174 -6 -365 -112 -527 -81 -125 -185 -215 -341 -298 -117 -61
-271 -150 -315 -182 -19 -14 -65 -56 -102 -93 -60 -60 -68 -73 -68 -106 -2
-100 -12 -244 -25 -343 -3 -19 -7 -55 -11 -80 -32 -240 -137 -589 -242 -805
-81 -165 -178 -292 -263 -342 l-27 -16 5 -141 c3 -98 0 -166 -10 -221 -8 -44
-13 -82 -11 -84 2 -2 80 22 174 53 93 32 185 58 205 58 48 0 94 -30 119 -77
23 -45 27 -167 7 -219 -6 -16 -9 -31 -6 -34 7 -7 104 15 195 44 133 44 245
104 422 230 54 38 98 45 146 24 22 -10 48 -29 56 -43 19 -28 44 -139 41 -177
-1 -14 0 -29 2 -33 7 -12 147 67 231 129 74 56 135 113 233 221 64 70 102 84
165 61 74 -27 100 -97 99 -267 l0 -73 47 53 c164 184 297 453 343 692 18 96
35 129 78 156 64 39 148 18 185 -47 17 -30 21 -32 26 -16 9 31 46 202 52 242
3 20 7 44 9 52 2 8 9 56 15 105 46 374 32 585 -55 833 -114 326 -332 646 -655
957 -108 104 -174 182 -251 297 -192 287 -386 478 -589 580 -47 24 -92 45
-100 47 -8 2 -37 10 -65 18 -71 19 -178 22 -260 7z"/>
<path d="M1929 3856 c-2 -3 -31 -7 -64 -9 -41 -3 -93 -18 -160 -47 -84 -36
-293 -136 -303 -145 -2 -2 17 -25 42 -51 25 -26 46 -51 46 -55 0 -4 29 -24 65
-44 79 -44 194 -134 255 -201 137 -148 222 -305 275 -511 26 -99 30 -118 41
-190 7 -46 14 -52 35 -27 25 31 225 157 340 214 118 59 190 108 244 164 209
216 228 513 46 695 -92 93 -209 148 -401 187 -68 15 -450 30 -461 20z m400
-123 c139 -45 217 -198 174 -344 -21 -71 -97 -149 -171 -173 -98 -33 -213 -4
-285 70 -102 106 -100 284 5 380 53 49 67 57 116 70 65 17 101 17 161 -3z"/>
<path d="M2210 3559 c-25 -9 -60 -55 -60 -79 0 -7 7 -27 16 -46 40 -84 166
-54 166 41 0 40 -13 60 -53 81 -32 16 -34 16 -69 3z"/>
<path d="M1125 3562 c-136 -15 -305 -86 -389 -163 -57 -52 -119 -158 -132
-225 l-6 -31 49 7 c78 12 172 24 293 35 25 2 142 7 260 11 118 3 216 7 217 8
1 1 -5 35 -13 76 -38 183 -150 296 -279 282z"/>
<path d="M1597 3230 c3 -19 6 -143 7 -275 l0 -240 -44 -65 c-78 -115 -183
-223 -290 -298 -272 -191 -430 -328 -496 -432 -16 -25 -32 -47 -35 -50 -23
-18 -77 -159 -86 -223 l-5 -38 52 39 c145 110 231 114 259 14 13 -42 -15 -83
-76 -113 -63 -30 -163 -131 -192 -193 -49 -107 -57 -233 -21 -364 35 -126 86
-202 171 -254 108 -67 329 -57 505 22 202 91 314 226 427 517 31 78 101 299
112 351 2 10 8 37 14 62 57 252 80 567 58 790 -32 313 -126 533 -308 725 l-58
60 6 -35z"/>
<path d="M1207 3014 c-1 -1 -67 -5 -147 -9 -130 -6 -182 -10 -230 -15 -42 -5
151 -71 280 -96 14 -3 57 -11 95 -19 39 -8 90 -17 115 -20 25 -3 57 -8 73 -11
l27 -6 0 89 0 89 -106 0 c-58 -1 -106 -2 -107 -2z"/>
</g>
</svg>
